<?xml version="1.0" encoding="utf-8"?>
<svg viewBox="0 0 500 500" xmlns="http://www.w3.org/2000/svg">
  <path d="M 244.64 17.248 L 249.698 8.391 L 244.587 5.469 L 239.498 8.437 L 244.64 17.248 Z M 48.809 131.485 L 43.668 122.674 L 38.608 125.626 L 38.608 131.485 L 48.809 131.485 Z M 244.64 249.8 L 239.366 258.527 L 244.585 261.678 L 249.834 258.576 L 244.64 249.8 Z M 316.038 331.396 C 316.038 325.761 311.469 321.197 305.837 321.197 C 300.202 321.197 295.638 325.761 295.638 331.396 L 316.038 331.396 Z M 360.915 274.276 C 360.915 268.644 356.347 264.076 350.715 264.076 C 345.083 264.076 340.515 268.644 340.515 274.276 L 360.915 274.276 Z M 401.714 217.161 C 401.714 211.525 397.143 206.961 391.516 206.961 C 385.879 206.961 381.315 211.525 381.315 217.161 L 401.714 217.161 Z M 444.55 131.485 L 454.751 131.485 L 454.751 125.565 L 449.612 122.624 L 444.55 131.485 Z M 444.55 359.954 L 449.875 368.654 L 454.751 365.664 L 454.751 359.954 L 444.55 359.954 Z M 244.64 482.349 L 239.498 491.157 L 244.766 494.23 L 249.965 491.046 L 244.64 482.349 Z M 48.809 368.114 L 38.608 368.114 L 38.608 373.967 L 43.668 376.921 L 48.809 368.114 Z M 239.498 8.437 L 43.668 122.674 L 53.944 140.294 L 249.776 26.058 L 239.498 8.437 Z M 249.91 241.068 L 54.078 122.752 L 43.532 140.211 L 239.366 258.527 L 249.91 241.068 Z M 295.638 331.396 L 295.638 384.433 L 316.038 384.433 L 316.038 331.396 L 295.638 331.396 Z M 340.515 274.276 L 340.515 359.954 L 360.915 359.954 L 360.915 274.276 L 340.515 274.276 Z M 381.315 217.161 L 381.315 331.396 L 401.714 331.396 L 401.714 217.161 L 381.315 217.161 Z M 249.834 258.576 L 449.747 140.26 L 439.353 122.705 L 239.443 241.018 L 249.834 258.576 Z M 454.751 359.954 L 454.751 131.485 L 434.353 131.485 L 434.353 359.954 L 454.751 359.954 Z M 439.225 351.252 L 239.312 473.651 L 249.965 491.046 L 449.875 368.654 L 439.225 351.252 Z M 43.668 376.921 L 239.498 491.157 L 249.776 473.542 L 53.944 359.301 L 43.668 376.921 Z M 59.007 368.114 L 59.007 131.485 L 38.608 131.485 L 38.608 368.114 L 59.007 368.114 Z M 449.612 122.624 L 249.698 8.391 L 239.576 26.101 L 439.488 140.338 L 449.612 122.624 Z" fill="white" style="" transform="matrix(0.9999999999999999, 0, 0, 0.9999999999999999, -7.105427357601002e-15, -7.105427357601002e-15)"/>
</svg>